#tb 0: 1/25
0,          0,          0,        1,  1382400, 0xecfdf606
0,          1,          1,        1,  1382400, 0x7607799b
0,          2,          2,        1,  1382400, 0x67fb98e4
0,          3,          3,        1,  1382400, 0xf2dce07f
0,          4,          4,        1,  1382400, 0x663f991c
0,          5,          5,        1,  1382400, 0x3877aeb0
0,          6,          6,        1,  1382400, 0x73409282
0,          7,          7,        1,  1382400, 0x766c10b1
